<?xml version="1.0" standalone="no"?>
<!DOCTYPE svg PUBLIC "-//W3C//DTD SVG 20010904//EN"
 "http://www.w3.org/TR/2001/REC-SVG-20010904/DTD/svg10.dtd">
<svg version="1.0" xmlns="http://www.w3.org/2000/svg"
 width="220.000000pt" height="229.000000pt" viewBox="0 0 220.000000 229.000000"
 preserveAspectRatio="xMidYMid meet">

<g transform="translate(0.000000,229.000000) scale(0.100000,-0.100000)"
fill="#000000" stroke="none">
<path d="M723 1998 c-50 -24 -67 -120 -35 -193 l18 -40 -56 -51 c-30 -29 -71
-79 -90 -112 l-35 -60 -58 -5 c-67 -6 -150 -44 -155 -70 -5 -27 25 -56 90 -87
l57 -27 -26 -24 c-59 -54 -80 -156 -44 -215 17 -27 36 -39 94 -58 9 -3 17 -13
17 -21 0 -28 68 -165 114 -229 25 -35 71 -87 103 -116 61 -56 199 -150 221
-150 8 0 12 -16 12 -46 0 -45 0 -45 -50 -66 -27 -11 -50 -24 -50 -29 0 -17 19
-18 54 -4 46 19 44 20 48 -17 2 -18 8 -33 13 -33 6 0 11 15 13 33 4 37 6 37
55 17 45 -18 47 -19 47 0 0 8 -20 23 -45 34 -41 18 -45 23 -45 55 0 34 0 35
33 24 17 -5 68 -13 112 -16 64 -6 80 -10 83 -24 2 -12 -11 -23 -47 -39 -28
-12 -51 -28 -51 -35 0 -18 18 -17 50 1 38 22 48 18 52 -17 2 -18 8 -33 13 -33
6 0 11 15 13 33 4 35 14 39 52 17 32 -18 50 -19 50 -1 0 7 -23 23 -50 35 -78
33 -69 54 33 75 149 32 349 126 472 223 62 49 95 95 95 133 0 38 -50 115 -135
210 -42 47 -135 163 -207 259 -153 204 -264 324 -363 390 -59 39 -70 51 -64
67 12 31 10 117 -4 144 -7 13 -24 31 -39 39 -24 14 -30 14 -61 -1 -33 -16 -35
-16 -60 10 -32 32 -80 34 -109 5 l-20 -21 -36 24 c-38 26 -47 28 -79 12z m281
-213 c171 -45 312 -167 531 -460 78 -105 176 -230 219 -279 81 -93 116 -150
116 -188 0 -64 -106 -154 -285 -242 -174 -86 -234 -101 -400 -101 -129 0 -145
2 -203 27 -105 44 -172 89 -262 178 -154 151 -220 298 -228 505 -5 139 8 207
62 320 58 123 154 209 266 239 72 19 113 19 184 1z m-500 -287 c-4 -13 -13
-45 -19 -73 -13 -56 -20 -58 -93 -23 -51 24 -71 54 -49 75 20 21 86 42 130 43
35 0 38 -2 31 -22z m476 -1018 c0 -36 3 -39 45 -57 25 -10 45 -21 45 -25 0 -4
-21 2 -46 12 -25 11 -48 20 -50 20 -2 0 -5 -17 -6 -37 l-1 -38 -4 37 -4 37
-46 -20 c-25 -11 -48 -17 -51 -14 -3 2 18 14 46 26 52 21 52 22 52 66 0 27 4
42 10 38 6 -3 10 -23 10 -45z m305 -55 c25 -9 47 -21 51 -26 3 -5 -17 0 -45
11 l-51 20 -2 -38 -1 -37 -4 37 -4 37 -50 -19 c-28 -11 -48 -16 -45 -11 4 5
26 17 51 27 37 14 45 22 46 43 l2 26 4 -26 c3 -21 14 -30 48 -44z"/>
<path d="M834 1515 c-15 -23 -15 -27 0 -50 28 -43 86 -26 86 25 0 51 -58 68
-86 25z"/>
<path d="M1362 1204 c109 -114 163 -232 156 -345 -3 -62 -7 -72 -37 -103 -106
-109 -332 -42 -523 156 -43 44 -78 75 -78 69 0 -21 133 -152 200 -196 179
-119 361 -132 433 -31 19 27 22 44 22 121 0 82 -3 96 -33 158 -35 70 -104 165
-151 204 -49 42 -43 23 11 -33z"/>
</g>
</svg>
